<svg width="20" height="20" viewBox="0 0 20 20" fill="none" xmlns="http://www.w3.org/2000/svg">
<path d="M1.96433 18.0355C2.59468 18.6668 3.49594 19 4.5715 19C6.14465 19 8.05283 18.2974 10.0008 17.0792C11.9478 18.2983 13.8569 19 15.43 19C16.5047 19 17.4059 18.6668 18.0372 18.0355C19.1832 16.8895 19.3114 14.9533 18.3993 12.5819C18.076 11.7402 17.6281 10.8706 17.0835 10C17.6035 9.18335 18.0441 8.31878 18.3993 7.41812C19.3114 5.04666 19.1823 3.10957 18.0372 1.96448C17.4068 1.33323 16.5056 1 15.43 1C13.8569 1 11.9487 1.70259 10.0008 2.92083C8.05374 1.70169 6.14465 1 4.5715 1C3.49684 1 2.59558 1.33323 1.96433 1.96448C0.818336 3.11048 0.689197 5.04666 1.6013 7.41812C1.9255 8.25978 2.37252 9.12944 2.91707 10C2.39707 10.8167 1.95647 11.6812 1.6013 12.5819C0.689197 14.9533 0.818336 16.8895 1.96433 18.0355V18.0355ZM16.7124 13.2303C17.3346 14.8468 17.3518 16.1662 16.7593 16.7586C16.4704 17.0476 16.0233 17.1939 15.4291 17.1939C14.3752 17.1939 13.0396 16.7396 11.629 15.9476C13.2467 14.6971 14.6982 13.2453 15.9484 11.6273C16.2518 12.1701 16.511 12.7074 16.7124 13.2303V13.2303ZM9.99985 14.8919C9.05707 14.2179 8.17092 13.4679 7.35025 12.6496C6.52786 11.8284 5.77286 10.9423 5.09257 10C6.45225 8.11405 8.10966 6.46183 9.99985 5.10807C10.9426 5.78212 11.8288 6.53206 12.6495 7.35039C13.4719 8.17163 14.2268 9.05769 14.9071 10C13.5475 11.8859 11.8901 13.5382 9.99985 14.8919V14.8919ZM15.4291 2.80614C16.0224 2.80614 16.4695 2.95244 16.7593 3.24142C17.3518 3.83383 17.3355 5.15322 16.7124 6.76972C16.511 7.2926 16.2518 7.82992 15.9484 8.37267C14.6995 6.75361 13.2478 5.30164 11.629 4.05238C13.0396 3.26129 14.3752 2.80614 15.4291 2.80614ZM3.28733 6.76972C2.66512 5.15322 2.64796 3.83383 3.24037 3.24142C3.52935 2.95244 3.97637 2.80614 4.57059 2.80614C5.62448 2.80614 6.96012 3.26039 8.37072 4.05238C6.75192 5.30164 5.30025 6.75361 4.05133 8.37267C3.75923 7.85701 3.50393 7.32136 3.28733 6.76972V6.76972ZM3.28733 13.2303C3.48872 12.7074 3.7479 12.1701 4.05133 11.6273C5.30025 13.2464 6.75192 14.6984 8.37072 15.9476C6.95922 16.7396 5.62448 17.1939 4.57059 17.1939C3.97728 17.1939 3.53026 17.0476 3.24037 16.7586C2.64796 16.1662 2.66512 14.8468 3.28733 13.2303V13.2303Z" fill="black"/>
<path d="M10.145 12.29C11.3297 12.29 12.29 11.3297 12.29 10.145C12.29 8.96035 11.3297 8 10.145 8C8.96035 8 8 8.96035 8 10.145C8 11.3297 8.96035 12.29 10.145 12.29Z" fill="black"/>
</svg>
