<svg width="40" height="40" viewBox="0 0 40 40" fill="none" xmlns="http://www.w3.org/2000/svg">
<g clip-path="url(#clip0_62_21)">
<path d="M37.4634 20.0195H2.49756C1.79512 20.0195 1.20325 19.7789 0.721951 19.2976C0.24065 18.8163 0 18.2309 0 17.5415C0 16.852 0.24065 16.2602 0.721951 15.7659C1.20325 15.2715 1.79512 15.0244 2.49756 15.0244H4.68293C5.20325 15.8049 5.87317 16.4163 6.69268 16.8585C7.5122 17.3008 8.40325 17.522 9.36585 17.522C10.3285 17.522 11.2195 17.3008 12.039 16.8585C12.8585 16.4163 13.5285 15.8049 14.0488 15.0244H25.9122C26.4325 15.8049 27.1024 16.4163 27.922 16.8585C28.7415 17.3008 29.6325 17.522 30.5951 17.522C31.5577 17.522 32.4488 17.3008 33.2683 16.8585C34.0878 16.4163 34.7577 15.8049 35.278 15.0244H37.4634C38.1659 15.0244 38.7577 15.2715 39.239 15.7659C39.7203 16.2602 39.961 16.852 39.961 17.5415C39.961 18.2309 39.7138 18.8163 39.2195 19.2976C38.7252 19.7789 38.1398 20.0195 37.4634 20.0195ZM31.4537 14.7902C30.9593 15.0764 30.439 15.1415 29.8927 14.9854C29.3463 14.8293 28.9301 14.5041 28.6439 14.0098L22.7512 3.16097C22.465 2.66666 22.3935 2.13983 22.5366 1.58048C22.6797 1.02113 22.9984 0.598365 23.4927 0.312186C23.987 0.0260068 24.5073 -0.0390339 25.0537 0.117064C25.6 0.273161 26.0163 0.598365 26.3024 1.09267L32.1951 11.9415C32.4813 12.4358 32.5528 12.9626 32.4098 13.522C32.2667 14.0813 31.948 14.5041 31.4537 14.7902ZM11.3171 14.0098C11.0309 14.5041 10.6146 14.8293 10.0683 14.9854C9.52195 15.1415 9.00163 15.0764 8.50732 14.7902C8.01301 14.5041 7.69431 14.0813 7.55122 13.522C7.40813 12.9626 7.47967 12.4358 7.76585 11.9415L13.6585 1.09267C13.9447 0.598365 14.361 0.273161 14.9073 0.117064C15.4537 -0.0390339 15.974 0.0260068 16.4683 0.312186C16.9626 0.598365 17.2813 1.02113 17.4244 1.58048C17.5675 2.13983 17.4959 2.66666 17.2098 3.16097L11.3171 14.0098ZM34.9659 37.5025C34.7577 38.5431 34.374 39.2195 33.8146 39.5317C33.2553 39.8439 32.4033 40 31.2585 40H8.85854C7.6878 40 6.80325 39.8439 6.20488 39.5317C5.6065 39.2195 5.20325 38.5431 4.99512 37.5025L2.49756 22.5171H37.4634L34.9659 37.5025ZM28.722 30.0098H18.7317C18.3935 30.0098 18.1008 30.1333 17.8537 30.3805C17.6065 30.6277 17.4829 30.9203 17.4829 31.2586C17.4829 31.5968 17.6065 31.8894 17.8537 32.1366C18.1008 32.3838 18.3935 32.5073 18.7317 32.5073H28.722C29.0602 32.5073 29.3528 32.3838 29.6 32.1366C29.8472 31.8894 29.9707 31.5968 29.9707 31.2586C29.9707 30.9203 29.8472 30.6277 29.6 30.3805C29.3528 30.1333 29.0602 30.0098 28.722 30.0098Z" fill="black"/>
<path d="M17.5 27.5V31V31.5V34H31V27.5H17.5Z" fill="black"/>
</g>
<defs>
<clipPath id="clip0_62_21">
<rect width="39.961" height="40" fill="white"/>
</clipPath>
</defs>
</svg>
