<svg width="40" height="40" viewBox="0 0 40 40" fill="none" xmlns="http://www.w3.org/2000/svg">
<g clip-path="url(#clip0_5_23)">
<path d="M17.5 37.5C19.5711 37.5 21.25 35.8211 21.25 33.75C21.25 31.6789 19.5711 30 17.5 30C15.4289 30 13.75 31.6789 13.75 33.75C13.75 35.8211 15.4289 37.5 17.5 37.5Z" fill="black"/>
<path d="M30 37.5C32.0711 37.5 33.75 35.8211 33.75 33.75C33.75 31.6789 32.0711 30 30 30C27.9289 30 26.25 31.6789 26.25 33.75C26.25 35.8211 27.9289 37.5 30 37.5Z" fill="black"/>
<path d="M40 11.65L35 26.65C34.913 26.9087 34.7438 27.1319 34.518 27.2854C34.2923 27.4389 34.0226 27.5142 33.75 27.5H13.75C13.4946 27.5008 13.2451 27.4234 13.035 27.2782C12.8249 27.1329 12.6644 26.9268 12.575 26.6875L5.3875 7.50001H1.25C0.918479 7.50001 0.600537 7.36831 0.366117 7.13389C0.131696 6.89947 0 6.58153 0 6.25001C0 5.91849 0.131696 5.60054 0.366117 5.36612C0.600537 5.1317 0.918479 5.00001 1.25 5.00001H6.25C6.5054 4.99918 6.75493 5.0766 6.965 5.22187C7.17508 5.36713 7.33561 5.57326 7.425 5.81251L8.9875 10H13.75C13.75 12.6522 14.8036 15.1957 16.6789 17.0711C18.5543 18.9464 21.0978 20 23.75 20C26.4022 20 28.9457 18.9464 30.8211 17.0711C32.6964 15.1957 33.75 12.6522 33.75 10H38.75C38.9483 10.0009 39.1436 10.049 39.3196 10.1403C39.4957 10.2316 39.6475 10.3635 39.7625 10.525C39.8892 10.6798 39.9769 10.8628 40.0183 11.0586C40.0596 11.2543 40.0533 11.4572 40 11.65Z" fill="black"/>
<path d="M23.9421 18.2615C28.7026 18.2853 32.575 14.3012 32.5275 9.64624C32.5428 5.01389 28.6827 1.06543 23.9421 1.08827C19.2009 1.06528 15.3402 5.01397 15.3559 9.64624C15.3086 14.3014 19.1807 18.2851 23.9421 18.2615ZM19.3046 6.70179L20.9686 5.03774L23.9421 8.01122L26.9148 5.03774L28.5788 6.70179C27.8548 7.42665 26.3169 8.96226 25.6061 9.67527L28.5788 12.648L26.9148 14.312L23.9421 11.3393L20.9686 14.312L19.3046 12.648C20.0101 11.9423 21.5868 10.3657 22.278 9.67527L22.249 9.64624L19.3046 6.70179Z" fill="black"/>
</g>
<defs>
<clipPath id="clip0_5_23">
<rect width="40" height="40" fill="white"/>
</clipPath>
</defs>
</svg>
