<svg width="260" height="258" viewBox="0 0 260 258" fill="none" xmlns="http://www.w3.org/2000/svg">
<path fill-rule="evenodd" clip-rule="evenodd" d="M113.5 0.617993C111.85 0.869993 106.918 1.78399 102.54 2.64699C61.286 10.784 25.782 39.987 9.648 79.054C2.999 95.155 0.0520023 110.308 0.0200023 128.574C-0.0779977 183.155 35.145 232.086 87 249.406C122.322 261.203 162.524 257.013 193.284 238.328L199.183 234.744L224.841 244.514C238.954 249.888 252.611 255.103 255.191 256.104L259.882 257.924L257.532 251.712C256.239 248.295 250.899 234.556 245.664 221.179L236.146 196.858L239.474 191.179C256.642 161.887 260.644 122.93 249.928 89.416C235.893 45.519 200.541 13.297 155 2.88999C146.683 0.988993 120.448 -0.447007 113.5 0.617993ZM145.5 19.037C159.664 21.054 177.615 28.505 191.684 38.205C199.974 43.921 213.878 58 219.135 66C227.71 79.051 234.92 96.835 236.972 110C238.47 119.611 238.216 138.502 236.452 148.615C234.747 158.391 229.729 171.975 224.128 181.977C217.201 194.344 217.268 197.584 224.849 216.842C228.084 225.058 228.569 227.04 227.21 226.487C199.969 215.392 197.674 215.225 183.546 223.297C164.618 234.11 150.118 237.93 128 237.93C107.048 237.93 92.713 234.413 75.23 224.983C45.975 209.203 23.589 177.799 18.943 146.022C17.199 134.094 18.229 109.535 20.855 100.457C23.858 90.077 29.224 77.914 34.649 69.196C40.258 60.182 53.597 45.967 62.93 39.06C75.452 29.792 95.641 21.083 109.039 19.169C117.918 17.902 137.042 17.832 145.5 19.037ZM94.764 83.091C85.035 91.692 80.632 94.419 68.958 99.077C59.724 102.763 59.693 103.983 68.768 106.621C86.105 111.661 104.871 97.611 103.809 80.385L103.5 75.368L94.764 83.091ZM156.022 80.725C156.089 98.443 174.014 111.626 191.232 106.621C200.307 103.983 200.276 102.763 191.042 99.077C179.329 94.403 174.979 91.7 164.99 82.884L156 74.949L156.022 80.725ZM108.306 155.426C86.412 159.579 70.235 168.803 63.66 180.883C62.129 183.697 61.327 186 61.879 186C62.43 186 63.166 185.54 63.514 184.978C64.678 183.093 75.828 178.041 83.201 176.056C104.732 170.261 148.232 169.762 172.391 175.033C181.327 176.983 194.034 182.131 196.123 184.648C198.774 187.842 198.903 185.592 196.34 180.883C190.729 170.573 176.23 161.277 159 156.942C148.039 154.184 119.37 153.327 108.306 155.426Z" fill="#262626"/>
</svg>
