<svg width="20" height="20" viewBox="0 0 20 20" fill="none" xmlns="http://www.w3.org/2000/svg">
<path d="M18.6593 9.19786L10.7999 1.3396C10.6923 1.23194 10.5645 1.14653 10.4239 1.08826C10.2833 1.02999 10.1325 1 9.98031 1C9.82809 1 9.67736 1.02999 9.53674 1.08826C9.39611 1.14653 9.26834 1.23194 9.16074 1.3396L7.52946 2.97088L9.59949 5.04091C9.84363 4.95756 10.1063 4.94452 10.3575 5.00328C10.6087 5.06204 10.8383 5.19024 11.0201 5.37324C11.2019 5.55623 11.3286 5.78667 11.3858 6.03823C11.4429 6.28979 11.4282 6.55235 11.3433 6.79594L13.3379 8.79173C13.633 8.68782 13.9547 8.68751 14.25 8.79084C14.5454 8.89416 14.7967 9.09497 14.9626 9.3602C15.1286 9.62543 15.1992 9.93926 15.163 10.25C15.1268 10.5608 14.9858 10.8499 14.7633 11.0699C14.5381 11.2965 14.2411 11.4379 13.9232 11.4699C13.6053 11.5019 13.2861 11.4226 13.0202 11.2454C12.7543 11.0682 12.5582 10.8042 12.4653 10.4985C12.3725 10.1927 12.3886 9.86426 12.511 9.56912L10.6514 7.70833V12.6055C10.9341 12.7455 11.1602 12.978 11.2922 13.2645C11.4242 13.551 11.454 13.874 11.3767 14.1798C11.2994 14.4856 11.1196 14.7556 10.8673 14.9449C10.615 15.1342 10.3055 15.2313 9.99028 15.2201C9.67507 15.2088 9.37325 15.0899 9.13511 14.883C8.89698 14.6762 8.73691 14.3941 8.6816 14.0835C8.6263 13.773 8.67908 13.4529 8.83116 13.1766C8.98324 12.9003 9.22544 12.6844 9.51737 12.565V7.62283C9.34894 7.55382 9.19584 7.45215 9.06689 7.32368C8.93794 7.19522 8.83569 7.0425 8.76604 6.87434C8.69639 6.70617 8.66071 6.52588 8.66106 6.34386C8.66142 6.16184 8.6978 5.9817 8.7681 5.8138L6.72844 3.77302L1.3396 9.16186C1.23194 9.26947 1.14653 9.39724 1.08826 9.53786C1.02999 9.67849 1 9.82922 1 9.98144C1 10.1337 1.02999 10.2844 1.08826 10.425C1.14653 10.5656 1.23194 10.6934 1.3396 10.801L9.19899 18.6604C9.30659 18.7681 9.43436 18.8535 9.57499 18.9117C9.71561 18.97 9.86634 19 10.0186 19C10.1708 19 10.3215 18.97 10.4621 18.9117C10.6028 18.8535 10.7305 18.7681 10.8381 18.6604L18.6604 10.8381C18.8776 10.6207 18.9995 10.3259 18.9995 10.0186C18.9995 9.71123 18.8776 9.41646 18.6604 9.19899" fill="black"/>
</svg>
