<svg width="20" height="20" viewBox="0 0 20 20" fill="none" xmlns="http://www.w3.org/2000/svg">
<g clip-path="url(#clip0_332_2)">
<path d="M4.94667 4C4.66667 4 4.38417 4.065 4.1025 4.185C3.81917 4.30583 3.53917 4.47333 3.26333 4.68917C2.97059 4.91806 2.69997 5.1739 2.455 5.45333C2.19417 5.74833 1.94667 6.07417 1.71583 6.42333C1.48583 6.77333 1.27167 7.14583 1.06583 7.52333H1.065V7.52417C0.865833 7.91833 0.691667 8.32417 0.54 8.73667C0.39 9.15 0.27 9.56417 0.175 9.98417C0.0833333 10.4008 0.0266667 10.8067 0.00833333 11.205C0.00330988 11.23 0.000521092 11.2554 0 11.2808L0 11.36C0 11.5775 0.0316667 11.8017 0.0625 12.0067V12.0083L0.0633333 12.01C0.12 12.2283 0.209167 12.43 0.321667 12.6075C0.437027 12.7828 0.589875 12.9302 0.769167 13.0392C0.95 13.1542 1.16417 13.2117 1.41583 13.2117C1.635 13.2117 1.8625 13.1617 2.09667 13.0575C2.32917 12.9533 2.56083 12.8175 2.79167 12.6583C3.015 12.4983 3.23833 12.315 3.45333 12.1083C3.62583 11.9483 3.78333 11.7817 3.93917 11.6167L3.77583 12.1233C3.705 12.3675 3.62583 12.6033 3.56167 12.8342C3.49083 13.0625 3.435 13.2675 3.3875 13.4492C3.34 13.6292 3.3075 13.7508 3.3075 13.8292V14.0083C3.3075 14.2092 3.32833 14.3508 3.39417 14.44C3.42691 14.4818 3.4692 14.5151 3.51749 14.5371C3.56578 14.5592 3.61865 14.5693 3.67167 14.5667C3.75202 14.5655 3.8297 14.5376 3.8925 14.4875C3.96 14.4375 4.0175 14.3733 4.075 14.3008V14.2992L4.07667 14.2983C4.12417 14.2258 4.1725 14.1483 4.21333 14.0667C4.255 13.9825 4.27833 13.9083 4.3025 13.8425V13.8417L4.35833 13.6417L4.4775 13.2292L4.63583 12.6775C4.69917 12.4717 4.75417 12.265 4.825 12.055L5.0125 11.43C5.0725 11.2267 5.12917 11.0425 5.18167 10.8792C5.23417 10.7125 5.27833 10.5775 5.315 10.4683C5.33167 10.4142 5.34833 10.3717 5.36 10.34L5.37167 10.3133L5.405 10.3283L5.42 10.2883C5.48333 10.1067 5.54583 9.9325 5.60917 9.76667C5.6725 9.6 5.73583 9.43333 5.78417 9.26917C5.90761 8.9243 5.96966 8.56046 5.9675 8.19417C5.96836 8.12122 5.95418 8.04888 5.92583 7.98167C5.90455 7.92377 5.86901 7.87218 5.8225 7.83167C5.78031 7.79436 5.73098 7.76601 5.6775 7.74833C5.62634 7.73184 5.57292 7.72341 5.51917 7.72333C5.40572 7.72501 5.29561 7.76201 5.20417 7.82917C5.09667 7.90083 5.01667 8.02 4.95667 8.18083V8.18167L4.49833 9.65167C4.42141 9.80075 4.3331 9.94368 4.23417 10.0792V10.08C3.82938 10.6502 3.35013 11.1636 2.80917 11.6067C2.65447 11.7357 2.48692 11.8485 2.30917 11.9433C2.18252 12.0178 2.03933 12.0596 1.8925 12.065C1.79843 12.0679 1.70637 12.0375 1.6325 11.9792C1.55598 11.9197 1.49719 11.8405 1.4625 11.75C1.42063 11.6465 1.39207 11.5382 1.3775 11.4275C1.36193 11.3109 1.35414 11.1934 1.35417 11.0758C1.35417 10.7317 1.40917 10.3475 1.51917 9.91417C1.62917 9.48083 1.77917 9.0475 1.96833 8.59833C2.1575 8.14833 2.37833 7.715 2.62333 7.28917C2.8675 6.86333 3.1275 6.485 3.395 6.15417C3.66167 5.82417 3.92833 5.56583 4.20333 5.3625C4.47583 5.15917 4.72 5.06083 4.955 5.06083C5.10205 5.05867 5.24635 5.10077 5.36917 5.18167C5.49583 5.26333 5.61083 5.40083 5.71917 5.595V5.59417C5.83083 5.81 5.94333 5.9775 6.04 6.09917C6.14 6.22417 6.25583 6.28833 6.38 6.28833C6.44739 6.289 6.51397 6.27362 6.57424 6.24349C6.63452 6.21335 6.68676 6.16931 6.72667 6.115C6.8225 6 6.86833 5.8425 6.86833 5.65167C6.86833 5.57167 6.86 5.485 6.84333 5.39583C6.8244 5.2959 6.78465 5.20107 6.72667 5.1175C6.465 4.72583 6.18417 4.445 5.885 4.26417H5.88333C5.6001 4.0938 5.27634 4.00257 4.94583 4H4.94667ZM14.0808 4.7125C13.96 4.71433 13.8419 4.74889 13.7392 4.8125H13.7383L13.7375 4.81333C13.6129 4.90115 13.52 5.02682 13.4725 5.17167L11.8983 9.13667L11.5508 10.0075C11.4233 10.3242 11.305 10.6408 11.1783 10.9642C11.1202 11.1141 11.0713 11.2675 11.0317 11.4233C10.9623 11.4854 10.8909 11.5452 10.8175 11.6025C10.645 11.7358 10.4817 11.8367 10.3267 11.9067H10.325C10.2065 11.972 10.0744 12.0088 9.93917 12.0142C9.87083 12.0142 9.825 11.9975 9.79583 11.97C9.76667 11.9425 9.74917 11.9 9.74917 11.8317C9.74917 11.6775 9.7725 11.5067 9.81917 11.3192C9.86667 11.1358 9.92917 10.9433 10 10.75C10.0679 10.5552 10.1441 10.3633 10.2283 10.175L10.4583 9.63833C10.53 9.47167 10.5858 9.32 10.6333 9.19333C10.6756 9.09356 10.7007 8.98733 10.7075 8.87917C10.7093 8.74792 10.6673 8.61981 10.5883 8.515C10.5507 8.46465 10.5015 8.42401 10.445 8.39647C10.3885 8.36893 10.3262 8.35529 10.2633 8.35667C10.2028 8.35527 10.1428 8.36803 10.0882 8.39393C10.0335 8.41982 9.98558 8.45815 9.94833 8.50583C9.85921 8.61021 9.78771 8.72843 9.73667 8.85583C9.66997 9.00071 9.61399 9.15027 9.56917 9.30333C9.5225 9.46167 9.46 9.61 9.39667 9.74917C9.3025 9.9575 9.19167 10.1858 9.05 10.4375C8.91142 10.6851 8.75402 10.9216 8.57917 11.145C8.40667 11.3617 8.21917 11.5442 8.01667 11.69C7.8368 11.8268 7.61762 11.9019 7.39167 11.9042C7.3225 11.9042 7.27667 11.8792 7.2525 11.8308C7.22275 11.7729 7.20786 11.7085 7.20917 11.6433C7.2175 11.4733 7.2475 11.2942 7.3025 11.1075C7.3575 10.9225 7.42 10.7383 7.49083 10.5575C7.56167 10.3825 7.64083 10.2042 7.72667 10.0367C7.81417 9.86917 7.89333 9.71083 7.97167 9.57V9.56917L8.17833 9.1775C8.22302 9.08894 8.26063 8.99699 8.29083 8.9025L8.29167 8.90083V8.9C8.3 8.86667 8.30917 8.825 8.30917 8.77917C8.31037 8.71677 8.29483 8.65519 8.26417 8.60083V8.6L8.26333 8.59917C8.23249 8.54907 8.19188 8.50568 8.14392 8.47161C8.09596 8.43754 8.04163 8.41347 7.98417 8.40083C7.90157 8.37495 7.81398 8.36924 7.72873 8.38417C7.64348 8.39911 7.56304 8.43425 7.49417 8.48667C7.38417 8.5625 7.30167 8.68 7.22833 8.84167C6.98732 9.33673 6.76767 9.84192 6.57 10.3558C6.41167 10.7767 6.30083 11.1175 6.22167 11.38C6.16146 11.5707 6.11605 11.7657 6.08583 11.9633V11.9642L6.06917 12.1567V12.1583C6.06917 12.3367 6.09333 12.4917 6.14417 12.6167V12.6183C6.20083 12.7408 6.2675 12.84 6.35167 12.9158C6.43806 12.9913 6.54073 13.0458 6.65167 13.075C6.76167 13.1083 6.87667 13.1242 6.99333 13.1242C7.2525 13.1242 7.49167 13.0758 7.71083 12.995C7.93 12.9142 8.12833 12.8017 8.30583 12.665C8.47934 12.5314 8.63678 12.3782 8.775 12.2083C8.875 12.0917 8.95 11.9708 9.025 11.8525C8.99167 12.0358 8.96 12.2167 8.96 12.3642C8.96 12.6392 9.0125 12.8392 9.12833 12.9617C9.18444 13.0203 9.25223 13.0664 9.32731 13.0971C9.40239 13.1278 9.48308 13.1425 9.56417 13.14C9.7375 13.14 9.93 13.0925 10.1425 12.9983C10.3533 12.9042 10.5675 12.78 10.7842 12.6267C10.8383 12.5892 10.89 12.5492 10.9425 12.5092L10.9467 12.5392C10.9693 12.6435 11.0117 12.7425 11.0717 12.8308H11.0725L11.0733 12.8325C11.14 12.915 11.215 12.9825 11.3158 13.0325C11.4332 13.0868 11.5616 13.1127 11.6908 13.1083C11.9171 13.1047 12.1402 13.0551 12.3467 12.9625H12.3483C12.5717 12.8583 12.7958 12.73 13.0192 12.5625C13.2562 12.3827 13.4822 12.1888 13.6958 11.9817L13.7042 11.9742C13.6658 12.0625 13.6292 12.1508 13.5892 12.24C13.4067 12.6433 13.2208 13.05 13.0275 13.4658C12.8333 13.8825 12.6392 14.2942 12.4575 14.7058L12.4567 14.7083L12.4558 14.71C12.4299 14.7883 12.401 14.8656 12.3692 14.9417C12.3392 15.0183 12.2983 15.0983 12.2733 15.19V15.1908C12.2425 15.2742 12.2108 15.3558 12.1942 15.4458C12.1692 15.5375 12.1608 15.6267 12.1608 15.7083C12.1608 15.8817 12.21 16.0142 12.3042 16.0808C12.4018 16.147 12.5179 16.1806 12.6358 16.1767C12.7375 16.1767 12.8308 16.1517 12.915 16.11V16.1092H12.9158C12.9994 16.0619 13.0737 15.9997 13.135 15.9258C13.1983 15.8508 13.2517 15.7658 13.3 15.6692C13.3479 15.57 13.3907 15.4685 13.4283 15.365L13.43 15.3617V15.3583C13.4367 15.3275 13.4608 15.2575 13.5 15.155L13.635 14.7917L13.7933 14.365L13.9592 13.93L14.1008 13.5675C14.1408 13.4642 14.165 13.3925 14.18 13.355V13.3542C14.1958 13.3225 14.22 13.275 14.2508 13.1967L14.3617 12.9358L14.4958 12.6275L14.6392 12.3108L14.7575 12.0258L14.8433 11.8375L14.8442 11.8367C14.915 11.695 15.0008 11.5383 15.0958 11.365V11.3642C15.1983 11.1917 15.3083 11.0267 15.4258 10.8542V10.8533C15.5525 10.6867 15.6775 10.5225 15.8117 10.3658C15.9458 10.21 16.0867 10.0767 16.2283 9.95083C16.3725 9.83417 16.5167 9.7325 16.6625 9.66333C16.7912 9.59651 16.9334 9.56003 17.0783 9.55667C17.15 9.55667 17.1975 9.57167 17.2267 9.58917C17.2383 9.60017 17.2474 9.61351 17.2534 9.62831C17.2595 9.64311 17.2623 9.65903 17.2617 9.675C17.2617 9.74167 17.2258 9.8475 17.1417 9.96917V9.97C17.055 10.1033 16.9533 10.245 16.8275 10.4025C16.6925 10.5608 16.5583 10.7267 16.4083 10.9C16.2583 11.075 16.115 11.2492 15.98 11.4233C15.8557 11.5839 15.7411 11.7517 15.6367 11.9258V11.9267C15.5524 12.0618 15.4945 12.2117 15.4658 12.3683V12.3742C15.4651 12.3803 15.464 12.3865 15.4625 12.3925C15.46 12.4008 15.4575 12.4042 15.4575 12.4217V12.4692C15.4575 12.6833 15.5342 12.8567 15.6858 12.9742C15.8383 13.1008 16.0533 13.1575 16.3192 13.1575C16.61 13.1575 16.8775 13.1008 17.1275 12.9875C17.3758 12.8758 17.6317 12.7242 17.8942 12.5242H17.895C18.1575 12.3275 18.4283 12.0933 18.7208 11.8217C19.005 11.5508 19.3367 11.2508 19.7075 10.9217C19.8048 10.8448 19.8801 10.7436 19.9258 10.6283C19.975 10.5133 20 10.3992 20 10.2867C20.0017 10.1922 19.9781 10.0989 19.9317 10.0167C19.9118 9.97915 19.882 9.94781 19.8456 9.92606C19.8092 9.90431 19.7674 9.89299 19.725 9.89333C19.6773 9.89451 19.6305 9.90678 19.5883 9.92917C19.5442 9.95083 19.4975 9.97917 19.4467 10.0133C19.36 10.0408 19.4608 10.0658 19.4717 10.1033C19.0233 10.5042 18.635 10.8425 18.3275 11.1083C18.0108 11.385 17.745 11.5983 17.5392 11.765C17.3867 11.8883 17.227 12.0024 17.0608 12.1067C16.9508 12.1725 16.8667 12.2042 16.82 12.2042C16.755 12.2042 16.71 12.1875 16.69 12.1683C16.678 12.1567 16.6686 12.1427 16.6624 12.1272C16.6563 12.1117 16.6535 12.095 16.6542 12.0783C16.6598 12.0558 16.6697 12.0346 16.6833 12.0158C16.7132 11.9716 16.7457 11.9293 16.7808 11.8892L17.1125 11.5017C17.2475 11.3508 17.3825 11.1842 17.5325 11.0017C17.6825 10.8183 17.8242 10.6292 17.9508 10.4333C18.0842 10.2417 18.1883 10.0442 18.2758 9.85C18.36 9.65583 18.4058 9.47083 18.4058 9.295C18.4085 9.17092 18.378 9.04837 18.3175 8.94C18.2603 8.84043 18.1814 8.75499 18.0867 8.69C17.995 8.62333 17.8883 8.57333 17.7742 8.53917H17.7733C17.4853 8.45865 17.1782 8.48014 16.9042 8.6C16.7282 8.67333 16.5611 8.76613 16.4058 8.87667C16.2411 8.99155 16.0838 9.1168 15.935 9.25167C15.8266 9.35379 15.721 9.45882 15.6183 9.56667L15.6483 9.42C15.6608 9.35917 15.6692 9.3025 15.6767 9.2475V9.24667C15.685 9.19 15.6875 9.15 15.6875 9.1225C15.6938 9.00924 15.6562 8.89791 15.5825 8.81167V8.81083H15.5808C15.5083 8.73583 15.3958 8.70333 15.2475 8.70333C15.1458 8.70333 15.0475 8.76167 14.9642 8.86167C14.8782 8.9691 14.8046 9.08596 14.745 9.21C14.6807 9.33975 14.6245 9.47333 14.5767 9.61L14.4658 9.925V9.92583C14.4275 10.0583 14.385 10.1933 14.3408 10.33C14.3292 10.3331 14.3178 10.337 14.3067 10.3417C14.2633 10.3566 14.2243 10.382 14.1933 10.4158L14.1958 10.4133C14.0975 10.5083 13.9867 10.6192 13.8633 10.7375C13.7408 10.8558 13.6108 10.9742 13.4767 11.0925C13.3417 11.2033 13.205 11.3217 13.0683 11.4317C12.9333 11.54 12.8017 11.6358 12.6758 11.7192C12.5508 11.8033 12.4342 11.8692 12.3267 11.92C12.2469 11.9621 12.1592 11.9871 12.0692 11.9933C12.0192 11.9933 11.9983 11.9817 11.9858 11.9583H11.985C11.9651 11.9183 11.9559 11.8738 11.9583 11.8292C11.9583 11.735 11.975 11.6267 12.0117 11.5042C12.0467 11.3825 12.0833 11.2758 12.12 11.1833L12.1433 11.1583L12.455 10.365C12.5733 10.0608 12.7 9.74333 12.8425 9.405L13.27 8.36C13.4117 8.00417 13.555 7.66 13.6892 7.33167L14.085 6.41333C14.2033 6.13333 14.3067 5.8975 14.3933 5.70667L14.3925 5.70833C14.4417 5.61083 14.4733 5.51917 14.505 5.44167V5.44C14.5336 5.36053 14.5491 5.27694 14.5508 5.1925C14.5508 5.02917 14.5 4.90083 14.4008 4.82333C14.3103 4.75029 14.1971 4.7111 14.0808 4.7125V4.7125Z" fill="black"/>
</g>
<defs>
<clipPath id="clip0_332_2">
<rect width="20" height="20" fill="white"/>
</clipPath>
</defs>
</svg>
