<svg width="40" height="38" viewBox="0 0 40 38" fill="none" xmlns="http://www.w3.org/2000/svg">
<g clip-path="url(#clip0_15_2)">
<path d="M21.8131 37.4896H32.6918C34.7559 37.4896 36.4854 36.7643 37.8243 35.3696C39.1632 34.0307 40 32.2455 40 30.2371V8.42401C40 6.41564 39.1632 4.63043 37.8243 3.29151C36.4854 1.9526 34.7001 1.17157 32.6918 1.17157H21.8131V5.74619H32.6918C34.2538 5.74619 35.4254 6.91773 35.4254 8.42401V30.2371C35.4254 31.7434 34.2538 32.9707 32.6918 32.9707H21.8131V37.4896ZM0 15.007V23.7099C0 24.7141 0.83682 25.5509 1.841 25.5509H11.9944V32.4129C11.9944 33.0265 12.2734 33.5286 12.8312 33.8076C13.0544 33.8633 13.3333 33.8633 13.4449 33.8633C13.8354 33.8633 14.1702 33.7518 14.4491 33.4728L27.5593 20.3626C28.0614 19.8606 28.0056 18.8564 27.5593 18.2985L14.4491 5.24409C14.0028 4.79779 13.4449 4.742 12.8312 4.90937C12.2734 5.18831 11.9944 5.63461 11.9944 6.24828V13.166H1.841C0.83682 13.166 0 14.0028 0 15.007Z" fill="black"/>
</g>
<defs>
<clipPath id="clip0_15_2">
<rect width="40" height="37.4895" fill="white"/>
</clipPath>
</defs>
</svg>
