<svg width="18" height="20" viewBox="0 0 18 20" fill="none" xmlns="http://www.w3.org/2000/svg">
<path d="M6.63011 8.875L8.88011 7.75L11.1301 8.875V11.125L8.88011 12.25L6.63011 11.125V8.875ZM16.3332 8.92773L12.9934 11.125C12.759 11.125 12.5774 11.0488 12.4485 10.8965C12.3196 10.7441 12.2551 10.5566 12.2551 10.334V8.03125L8.88011 6.0625L5.52269 8.03125V11.9688L13.3098 16.5215L9.9348 18.7539C9.64183 18.918 9.28734 19 8.87132 19C8.45531 19 8.10081 18.918 7.80785 18.7539L1.44456 14.5527C1.11643 14.3652 0.969947 14.1367 1.0051 13.8672V6.13281C0.969947 5.86328 1.11643 5.64062 1.44456 5.46484L7.80785 1.24609C8.10081 1.08203 8.45531 1 8.87132 1C9.28734 1 9.64183 1.08203 9.9348 1.24609L16.3157 5.46484C16.6086 5.62891 16.7493 5.82813 16.7375 6.0625H16.7551V8.24219C16.802 8.51172 16.6614 8.74023 16.3332 8.92773Z" fill="black"/>
</svg>
