<svg width="20" height="16" viewBox="0 0 20 16" fill="none" xmlns="http://www.w3.org/2000/svg">
<path d="M9.89594 13.0246C9.83687 13.0246 9.77781 13.0077 9.72438 12.9796L9.18437 12.659C9.10281 12.614 9.14219 12.5971 9.17031 12.5887C9.27719 12.5521 9.29969 12.5437 9.415 12.4762C9.42625 12.4705 9.44312 12.4733 9.45437 12.479L9.87062 12.7265C9.88469 12.7349 9.90719 12.7349 9.92125 12.7265L11.5469 11.7871C11.5609 11.7787 11.5722 11.7618 11.5722 11.7421V9.86615C11.5722 9.84646 11.5637 9.82959 11.5469 9.82115L9.92125 8.88459C9.90719 8.87615 9.8875 8.87615 9.87062 8.88459L8.245 9.82115C8.22812 9.82959 8.21969 9.84928 8.21969 9.86615V11.7421C8.21969 11.759 8.23094 11.7758 8.245 11.7843L8.68937 12.0402C8.93125 12.1612 9.08031 12.0177 9.08031 11.8771V10.0237C9.08031 9.99834 9.1 9.97584 9.12812 9.97584H9.33344C9.35875 9.97584 9.38125 9.99553 9.38125 10.0237V11.8771C9.38125 12.2005 9.20687 12.3833 8.90031 12.3833C8.8075 12.3833 8.73156 12.3833 8.52625 12.2821L8.09875 12.0374C7.99469 11.9755 7.92719 11.863 7.92719 11.7421V9.86615C7.92719 9.74521 7.99187 9.6299 8.09875 9.57084L9.72438 8.63146C9.82844 8.5724 9.96344 8.5724 10.0647 8.63146L11.6903 9.57084C11.7944 9.63271 11.8619 9.74521 11.8619 9.86615V11.7421C11.8619 11.863 11.7972 11.9783 11.6903 12.0374L10.0647 12.9768C10.0169 13.0077 9.95781 13.0246 9.89594 13.0246V13.0246ZM11.2094 11.174C11.2094 10.8224 10.9731 10.7296 10.4725 10.6621C9.96625 10.5946 9.91562 10.5608 9.91562 10.4427C9.91562 10.3443 9.95781 10.2149 10.3319 10.2149C10.6666 10.2149 10.7903 10.288 10.8409 10.513C10.8466 10.5355 10.8634 10.5496 10.8859 10.5496H11.0969C11.1109 10.5496 11.1222 10.544 11.1306 10.5355C11.1391 10.5243 11.1447 10.513 11.1419 10.499C11.1081 10.1108 10.8522 9.93084 10.3319 9.93084C9.86781 9.93084 9.59219 10.1277 9.59219 10.454C9.59219 10.8112 9.86781 10.9068 10.3122 10.9518C10.8437 11.0052 10.8859 11.0812 10.8859 11.1852C10.8859 11.368 10.7397 11.444 10.3966 11.444C9.96625 11.444 9.87062 11.3371 9.83969 11.1233C9.83687 11.1008 9.81719 11.084 9.79187 11.084H9.58094C9.55562 11.084 9.53312 11.1037 9.53312 11.1318C9.53312 11.4046 9.68219 11.7308 10.3937 11.7308C10.9141 11.7308 11.2094 11.5283 11.2094 11.174V11.174ZM12.7422 9.7649C12.7422 9.93646 12.6016 10.0771 12.43 10.0771C12.2584 10.0771 12.1178 9.93646 12.1178 9.7649C12.1178 9.58771 12.2641 9.45271 12.43 9.45271C12.5987 9.4499 12.7422 9.58771 12.7422 9.7649ZM12.6916 9.7649C12.6916 9.61865 12.5734 9.50334 12.4272 9.50334C12.2837 9.50334 12.1656 9.61865 12.1656 9.7649C12.1656 9.91115 12.2837 10.0293 12.4272 10.0293C12.5734 10.0265 12.6916 9.90834 12.6916 9.7649ZM12.565 9.93928H12.4919C12.4891 9.9224 12.4778 9.8324 12.4778 9.82959C12.4722 9.8099 12.4666 9.79865 12.4412 9.79865H12.3794V9.93928H12.3119V9.58771H12.4328C12.475 9.58771 12.5566 9.58771 12.5566 9.68053C12.5566 9.74521 12.5144 9.75928 12.4891 9.76771C12.5369 9.77053 12.5397 9.80146 12.5481 9.84646C12.5509 9.87459 12.5566 9.9224 12.565 9.93928V9.93928ZM12.4862 9.69178C12.4862 9.64396 12.4525 9.64396 12.4356 9.64396H12.3794V9.7424H12.4328C12.4778 9.7424 12.4862 9.71146 12.4862 9.69178V9.69178ZM4.86156 5.68397C4.86156 5.60803 4.82219 5.54053 4.7575 5.50397L3.03344 4.51115C3.00531 4.49428 2.97156 4.48584 2.93781 4.48303H2.92094C2.88719 4.48303 2.85625 4.49428 2.82531 4.51115L1.10406 5.50397C1.03938 5.54053 1 5.61084 1 5.68397L1.00281 8.35584C1.00281 8.3924 1.0225 8.42615 1.05344 8.44584C1.08437 8.46553 1.12375 8.46553 1.1575 8.44584L2.18125 7.85803C2.24594 7.81865 2.28531 7.75115 2.28531 7.67803V6.42928C2.28531 6.35615 2.32469 6.28584 2.38938 6.24928L2.82531 5.99896C2.85906 5.97928 2.89281 5.97084 2.92937 5.97084C2.96594 5.97084 3.0025 5.97928 3.03344 5.99896L3.46938 6.24928C3.53406 6.28584 3.57344 6.35615 3.57344 6.42928V7.67803C3.57344 7.75115 3.61281 7.82146 3.6775 7.85803L4.70125 8.44584C4.73219 8.46553 4.77437 8.46553 4.80531 8.44584C4.83625 8.42896 4.85594 8.3924 4.85594 8.35584L4.86156 5.68397ZM14.2891 2.7674V7.72865C14.2891 7.80178 14.2497 7.87209 14.185 7.90865L12.4609 8.90428C12.3962 8.94084 12.3175 8.94084 12.2528 8.90428L10.5287 7.90865C10.4641 7.87209 10.4247 7.80178 10.4247 7.72865V5.7374C10.4247 5.66428 10.4641 5.59397 10.5287 5.5574L12.2528 4.56178C12.3175 4.52522 12.3962 4.52522 12.4609 4.56178L12.8912 4.80928C12.9391 4.8374 13.0009 4.80084 13.0009 4.7474V2.10365C13.0009 2.0249 13.0853 1.97428 13.1556 2.01365L14.1822 2.5874C14.2469 2.62115 14.2891 2.69147 14.2891 2.7674V2.7674ZM12.9953 6.39271C12.9953 6.37303 12.9841 6.35615 12.97 6.34772L12.3794 6.00459C12.3625 5.99615 12.3428 5.99615 12.3259 6.00459L11.7353 6.34772C11.7184 6.35615 11.71 6.37303 11.71 6.39271V7.07615C11.71 7.09584 11.7213 7.11271 11.7353 7.12115L12.3259 7.46146C12.3428 7.4699 12.3625 7.4699 12.3766 7.46146L12.9672 7.12115C12.9841 7.11271 12.9925 7.09584 12.9925 7.07615V6.39271H12.9953ZM18.8959 6.37303C18.9606 6.33646 19 6.26615 19 6.19303V5.71209C19 5.63897 18.9606 5.56865 18.8959 5.53209L17.1831 4.53647C17.1184 4.4999 17.0397 4.4999 16.975 4.53647L15.2509 5.53209C15.1862 5.56865 15.1469 5.63897 15.1469 5.71209V7.70334C15.1469 7.77928 15.1862 7.84678 15.2509 7.88334L16.9637 8.85928C17.0256 8.89584 17.1044 8.89584 17.1691 8.85928L18.2041 8.28271C18.2744 8.24334 18.2744 8.14209 18.2041 8.10271L16.4687 7.10709C16.435 7.0874 16.4153 7.05365 16.4153 7.01709V6.39271C16.4153 6.35615 16.435 6.3224 16.4687 6.30271L17.0087 5.99053C17.0397 5.97084 17.0819 5.97084 17.1128 5.99053L17.6528 6.30271C17.6837 6.3224 17.7062 6.35615 17.7062 6.39271V6.88209C17.7062 6.96084 17.7934 7.01146 17.8637 6.97209L18.8959 6.37303V6.37303ZM16.7219 6.47146C16.7106 6.4799 16.7022 6.49115 16.7022 6.50521V6.88771C16.7022 6.90178 16.7106 6.91584 16.7219 6.92146L17.0537 7.11271C17.065 7.12115 17.0819 7.12115 17.0931 7.11271L17.425 6.92146C17.4362 6.91303 17.4447 6.90178 17.4447 6.88771V6.50521C17.4447 6.49115 17.4362 6.47709 17.425 6.47146L17.0931 6.28021C17.0819 6.27178 17.065 6.27178 17.0537 6.28021L16.7219 6.47146ZM9.5725 7.6949V5.7149C9.5725 5.64178 9.5275 5.57147 9.46281 5.5349L7.74437 4.5449C7.68531 4.51115 7.60375 4.50553 7.53625 4.5449L5.81781 5.5349C5.75312 5.57147 5.70812 5.63897 5.70812 5.7149V7.6949C5.70812 7.77365 5.76156 7.84115 5.82062 7.8749L7.54187 8.8649C7.60937 8.90428 7.68812 8.90146 7.75 8.8649L9.46562 7.8749C9.51625 7.84678 9.55281 7.79896 9.56687 7.74271C9.56969 7.72865 9.5725 7.71178 9.5725 7.6949ZM7.48281 4.18209L7.46031 4.19615H7.49125L7.48281 4.18209V4.18209ZM9.62594 7.84396L9.61469 7.82428V7.84959L9.62594 7.84396Z" fill="black"/>
</svg>
