<svg width="20" height="20" viewBox="0 0 20 20" fill="none" xmlns="http://www.w3.org/2000/svg">
<path d="M6.53846 8.61538C6.53846 7.28125 7.01262 6.14002 7.96094 5.19171C8.90925 4.24339 10.0505 3.76923 11.3846 3.76923C12.7187 3.76923 13.86 4.24339 14.8083 5.19171C15.7566 6.14002 16.2308 7.28125 16.2308 8.61538C16.2308 9.94952 15.7566 11.0907 14.8083 12.0391C13.86 12.9874 12.7187 13.4615 11.3846 13.4615C10.0505 13.4615 8.90925 12.9874 7.96094 12.0391C7.01262 11.0907 6.53846 9.94952 6.53846 8.61538ZM1 17.6154C1 17.9904 1.13702 18.3149 1.41106 18.5889C1.6851 18.863 2.00961 19 2.38461 19C2.77404 19 3.09856 18.863 3.35817 18.5889L7.06851 14.8894C8.35937 15.7837 9.79808 16.2308 11.3846 16.2308C12.4159 16.2308 13.402 16.0306 14.3431 15.6304C15.2843 15.2302 16.0956 14.6893 16.777 14.0078C17.4585 13.3263 17.9994 12.515 18.3996 11.5739C18.7999 10.6328 19 9.64663 19 8.61538C19 7.58413 18.7999 6.59796 18.3996 5.65685C17.9994 4.71575 17.4585 3.90445 16.777 3.22296C16.0956 2.54147 15.2843 2.0006 14.3431 1.60036C13.402 1.20012 12.4159 1 11.3846 1C10.3534 1 9.36719 1.20012 8.42608 1.60036C7.48498 2.0006 6.67368 2.54147 5.99219 3.22296C5.3107 3.90445 4.76983 4.71575 4.36959 5.65685C3.96935 6.59796 3.76923 7.58413 3.76923 8.61538C3.76923 10.2019 4.21635 11.6406 5.11058 12.9315L1.40024 16.6418C1.13341 16.9087 1 17.2332 1 17.6154Z" fill="black"/>
</svg>
