<svg width="20" height="20" viewBox="0 0 20 20" fill="none" xmlns="http://www.w3.org/2000/svg">
<path d="M17.1592 1.00273C17.1087 0.996542 17.0574 1.0009 17.0092 1.01548L2.38583 5.18857C2.24 5.22982 2.11667 5.34907 2.05083 5.48708C2.01758 5.53687 2.00027 5.59398 2.00083 5.65208V9.94667C2.00027 10.0048 2.01758 10.0619 2.05083 10.1117C2.11667 10.2489 2.24 10.3674 2.38583 10.4094L8.5975 12.1825L2.38583 13.9548C2.17333 14.0148 2 14.2353 2 14.446V18.7121C2 18.9236 2.17333 19.0451 2.38583 18.9844L17.0108 14.8105C17.2083 14.7543 17.3658 14.5585 17.3875 14.3605C17.39 14.344 17.3983 14.3305 17.3983 14.3118V10.0449C17.3983 9.83417 17.225 9.61366 17.0125 9.55291L10.865 7.79862L17.0108 6.04434C17.2233 5.98434 17.3958 5.76308 17.3958 5.55233V1.28774C17.3958 1.12948 17.2983 1.02148 17.16 1.00273H17.1592Z" fill="black"/>
</svg>
